<?xml version="1.0" encoding="utf-8"?>
<!-- Generator: Adobe Illustrator 27.2.0, SVG Export Plug-In . SVG Version: 6.00 Build 0)  -->
<svg version="1.1" id="Calque_1" xmlns="http://www.w3.org/2000/svg" xmlns:xlink="http://www.w3.org/1999/xlink" x="0px" y="0px"
	 viewBox="0 0 86.17 107.11" style="enable-background:new 0 0 86.17 107.11;" xml:space="preserve">
<style type="text/css">
	.st0{fill:#664C9A;}
	.st1{fill:#46AE4D;stroke:#FFFFFF;stroke-width:2;stroke-miterlimit:10;}
	.st2{fill:#1D86C8;stroke:#FFFFFF;stroke-width:3;stroke-miterlimit:10;}
	.st3{fill:#E94E29;stroke:#FFFFFF;stroke-width:3;stroke-miterlimit:10;}
	.st4{fill:none;stroke:#664C9A;stroke-width:6;stroke-linecap:round;stroke-linejoin:round;stroke-miterlimit:10;}
	.st5{fill:none;stroke:#664C9A;stroke-width:7;stroke-miterlimit:10;}
	.st6{fill:none;stroke:#664C9A;stroke-width:12;stroke-miterlimit:10;}
	.st7{fill:#020203;}
	.st8{font-family:'FuturaPT-Book';}
	.st9{font-size:23.3416px;}
	.st10{font-size:5px;}
</style>
<g>
	<g>
		<path class="st0" d="M73.37,7.74c1.2,0,2.4,0.5,3.2,1.4c0.9,0.9,1.4,2,1.4,3.2v15.1c1.4,0.2,2.8,0.4,4.2,0.7
			c0.9,0.2,1.8,0.3,2.7,0.5c0.4,0.1,0.9,0.2,1.3,0.3v-16.6c0-3.4-1.3-6.6-3.8-9c-2.4-2.4-5.6-3.8-9-3.8l0,0h-35.6
			c-1.9,2.5-3.5,5.2-4.7,8.2L73.37,7.74L73.37,7.74z"/>
	</g>
	<path class="st0" d="M37.77-0.46h-23.8c-3.4,0-6.6,1.3-9,3.8c-2.4,2.4-3.8,5.6-3.8,9v40.6c2.4-2.5,5-4.9,7.7-7
		c0.2-0.1,0.4-0.3,0.5-0.4v-33.2c0-1.2,0.5-2.4,1.4-3.2s2-1.4,3.2-1.4h19.1C34.27,4.84,35.87,2.04,37.77-0.46z"/>
	<path class="st0" d="M73.37,76.34h-26.4c1.3,3,3,5.7,5,8.2h21.4c7.1,0,12.8-5.7,12.8-12.8v-39.2c-2.7-0.6-5.4-1.1-8.2-1.4v40.6
		C77.97,74.34,75.97,76.34,73.37,76.34z"/>
	<g>
		<path class="st0" d="M46.97,76.34h11.9h-44.9c-2.5,0-4.6-2.1-4.6-4.6v-16.5c-2.9,2.9-5.7,6-8.2,9.3v7.2c0,7.1,5.7,12.8,12.8,12.8
			l0,0h38C49.97,82.14,48.27,79.34,46.97,76.34z"/>
	</g>
</g>
<g>
	<polyline class="st1" points="62.16,25.83 62.16,57.8 54.39,57.8 54.39,25.36 	"/>
	<rect x="46.07" y="36.72" class="st2" width="7.76" height="22.73"/>
	<rect x="38.05" y="41.93" class="st3" width="7.76" height="16.44"/>
	<circle class="st4" cx="51.03" cy="40.7" r="19.87"/>
	<line class="st5" x1="24.07" y1="62.63" x2="33.9" y2="54.16"/>
	<line class="st6" x1="16.42" y1="69.21" x2="28.98" y2="58.4"/>
	<polyline class="st1" points="54.39,30.58 54.39,14.87 62.16,14.87 62.16,30.58 	"/>
</g>
<g>
	<text transform="matrix(1 0 0 1 -2.1624 107.1127)" class="st7 st8 st9">Sherlock</text>
	<text transform="matrix(1 0 0 1 78.26 90.097)" class="st7 st8 st10">TM</text>
</g>
</svg>
